<svg xmlns="http://www.w3.org/2000/svg" xmlns:xlink="http://www.w3.org/1999/xlink" width="656.467" height="294.282" viewBox="0 0 492.351 220.711"><g transform="translate(0 -1.549)"><g data-name="P"><symbol id="f"><path d="M.451.266C.407.16.336.082.273.067.299.088.314.128.315.17.317.258.249.377.224.424H.158a1 1 0 0 0-.145-.29Q-.003.114.007.091C.028.036.097 0 .174 0c.13 0 .223.045.288.193zM.245.162C.244.105.21.06.152.06a.1.1 0 0 0-.085.048c.038.05.094.148.124.234a.4.4 0 0 0 .054-.18"/></symbol><symbol id="e"><path d="M.29.248C.233.145.163.067.118.067c-.04 0-.038.037 0 .152.028.09.081.24.146.414H.19C.137.485.082.333.049.229 0 .075.009 0 .104 0c.08 0 .162.107.2.192Z"/></symbol><symbol id="d"><path d="M.489.248C.433.145.363.067.318.067c-.044 0-.026.065.07.331h-.07L.302.352a.12.12 0 0 1-.098.056C.087.408 0 .279 0 .144 0 .063.044 0 .115 0c.066 0 .098.039.116.066C.234.04.25 0 .304 0c.079 0 .161.107.2.192zM.136.068C.092.068.072.107.072.147c0 .096.052.196.134.196A.08.08 0 0 0 .28.293C.239.147.196.068.136.068"/></symbol><symbol id="c"><path d="M.794.248A.34.34 0 0 0 .625.07a.14.14 0 0 1 .042.1C.668.258.593.368.576.424H.504C.472.316.417.182.318.157q.02.054.02.109c0 .068-.041.142-.127.142C.091.408 0 .281 0 .142 0 .061.051 0 .129 0 .196 0 .25.039.286.094a.2.2 0 0 1 .067.012C.376.044.45 0 .519 0c.13 0 .221.04.29.192zM.138.065C.099.065.071.094.071.149c0 .092.06.196.129.196.045 0 .067-.038.067-.083C.267.172.206.065.138.065M.504.06C.462.06.42.092.404.135a.44.44 0 0 1 .137.207.4.4 0 0 0 .056-.181C.596.105.562.06.504.06"/></symbol><symbol id="b"><path d="M.32.248C.264.145.193.067.148.067c-.059 0-.047.09.016.272h.092l.021.059H.186l.056.147H.17L.116.398H.061L.041.339h.054C.034.163 0 0 .134 0c.08 0 .162.107.2.192Z"/></symbol><symbol id="a"><path d="M.214.464c.03 0 .059.033.059.066 0 .023-.016.039-.038.039-.031 0-.06-.031-.06-.066C.175.481.19.464.214.464m.068-.29C.251.121.196.067.163.067c-.067 0 0 .164.064.331H.153C.081.204 0 .001.148 0h.001c.078.001.144.081.176.134z"/></symbol></g><use xlink:href="#a" fill="#d62027" style="display:inline" transform="matrix(127.77777 0 0 -127.77777 409.393 222.26)"/><use xlink:href="#b" fill="#d62027" style="display:inline" transform="matrix(127.77777 0 0 -127.77777 383.199 222.26)"/><use xlink:href="#c" fill="#d62027" style="display:inline" transform="matrix(127.77777 0 0 -127.77777 291.582 222.26)"/><path d="M274.204 222.26c10.222 0 20.828-13.672 25.684-24.533l-1.79-7.156c-7.155 12.522-15.716 23.128-21.594 23.128-2.3 0-3.578-1.278-3.578-3.834 0-7.155 10.478-20.444 10.478-29.133 0-6.389-4.216-10.605-10.605-10.605-7.284 0-14.44 4.472-20.061 12.777l4.088-11.5h-8.688c-5.75 16.484-11.117 33.095-16.484 49.578h9.072c4.856-18.783 15.973-42.55 28.75-42.55 3.067 0 4.217 1.661 4.217 4.728 0 7.283-10.094 18.4-10.094 28.494 0 6.517 3.96 10.606 10.605 10.606" style="fill:#d62027;stroke-width:127.778"/><path d="M245.07 184.821c-3.96 5.111-10.86 6.517-16.482 4.983 1.533-6.005 2.3-12.266 1.916-18.4h-9.328c1.15 21.85-12.394 42.04-20.572 42.04-3.322 0-4.983-1.79-4.983-6.39 0-7.666 4.344-21.85 9.967-35.65h-9.2c-4.984 11.5-9.712 27.217-9.712 37.184 0 6.9 3.578 13.672 12.012 13.672 11.244 0 21.722-10.861 27.472-25.045 7.539 2.173 15.716-.894 20.06-4.727z" style="fill:#d62027;stroke-width:127.778"/><use xlink:href="#d" fill="#d62027" transform="matrix(127.77777 0 0 -127.77777 129.943 222.26)"/><use xlink:href="#e" fill="#d62027" transform="matrix(127.77777 0 0 -127.77777 99.276 222.26)"/><use xlink:href="#f" fill="#d62027" transform="matrix(127.77777 0 0 -127.77777 51.104 222.26)"/><path d="m481.892 13.983-14.641 21.7h7.059l18.04-21.047zm-15.426 72.424c-9.282 0-13.596-4.707-14.25-11.243 15.558 3.399 31.637-5.622 31.637-19.74 0-6.798-4.706-14.12-14.51-14.12-15.296 0-26.539 15.688-26.539 33.206 0 11.635 8.367 19.871 21.701 20.002 12.027 0 21.832-7.06 26.67-13.858l-4.969-6.275c-3.79 5.36-12.288 12.028-19.74 12.028m2.353-37.128c3.922 0 6.014 3.138 6.014 6.668 0 8.628-11.766 14.772-22.355 12.288 1.7-10.066 8.236-18.956 16.341-18.956" style="fill:#d62027;stroke-width:130.729"/><path d="M450.91 56.208c-4.053 5.23-11.113 6.667-16.865 5.099 1.57-6.145 2.353-12.55 1.961-18.825h-9.543c1.177 22.354-12.68 43.01-21.047 43.01-3.4 0-5.099-1.83-5.099-6.537 0-7.844 4.445-22.355 10.197-36.473h-9.412c-5.099 11.765-9.936 27.845-9.936 38.042 0 7.06 3.66 13.988 12.289 13.988 11.504 0 22.224-11.112 28.106-25.623 7.714 2.222 16.08-.915 20.525-4.837z" style="fill:#d62027;stroke-width:130.729"/><path d="M399.402 56.208c-4.445 5.621-12.42 6.929-18.433 4.576v-1.046c0-8.89-5.36-18.564-16.602-18.564-15.688 0-27.584 16.603-27.584 34.774 0 10.59 6.667 18.564 16.864 18.564 13.596 0 23.139-12.289 26.276-25.623 7.844 2.353 16.21-.915 20.656-4.837zm-44.578 29.806c-5.099 0-8.76-3.79-8.76-10.98 0-12.028 7.844-25.624 16.865-25.624 5.883 0 8.759 4.968 8.759 10.85 0 11.766-7.975 25.754-16.864 25.754" style="fill:#d62027;stroke-width:130.729"/><path d="M343.32 61.96c-7.975 14.903-17.65 24.447-30.722 24.447-6.275 0-9.413-3.53-9.805-9.152 16.21-1.045 27.323-12.157 27.323-23.923 0-6.929-5.23-12.158-12.55-12.158-7.583 0-15.034 6.144-19.61 12.812 4.576-12.55 10.59-29.545 15.426-42.226h-9.804c-9.282 27.192-18.695 54.253-27.192 81.444h9.02c6.014-20.001 16.21-43.532 29.676-43.532 3.66 0 5.621 2.222 5.621 5.36 0 7.19-9.412 16.994-24.838 16.733-2.876 12.55 2.876 22.747 14.772 22.747 18.694 0 28.63-11.897 34.643-25.1z" style="fill:#d62027;stroke-width:130.729"/><path d="M263.967 94.512c10.458 0 21.309-13.988 26.276-25.1l-1.83-7.321c-7.32 12.811-16.08 23.662-22.093 23.662-2.353 0-3.66-1.307-3.66-3.922 0-7.32 10.72-20.917 10.72-29.806 0-6.537-4.315-10.85-10.851-10.85-7.452 0-14.773 4.575-20.525 13.072l4.184-11.765h-8.89c-5.883 16.864-11.373 33.858-16.864 50.722h9.282c4.967-19.217 16.34-43.532 29.414-43.532 3.137 0 4.314 1.7 4.314 4.837 0 7.451-10.328 18.825-10.328 29.152 0 6.667 4.053 10.85 10.85 10.85" style="fill:#d62027;stroke-width:130.729"/><path d="m224.748 13.983-14.642 21.7h7.06l18.04-21.047zm-14.772 71.77c-8.76 0 0-21.44 8.366-43.271H208.8c-9.543 25.361-20.001 52.03-.654 52.03 10.459 0 21.179-13.988 26.146-25.1l-1.83-7.321c-7.452 13.465-16.603 23.662-22.485 23.662" style="fill:#d62027;stroke-width:130.729"/><path d="M194.157 16.205h-9.02l-11.766 12.42-3.921-12.42h-8.106l5.752 19.479h7.844zm9.805 45.887c-7.582 14.772-16.472 23.27-30.59 29.937-.785-6.667-3.269-13.073-7.321-16.472 13.988-5.49 25.753-15.034 30.198-33.075h-41.18c-4.575 15.557-12.288 25.623-22.877 27.454l-2.876 9.15c13.203-1.176 24.577-11.634 31.767-28.89h23.008c-4.967 10.458-15.426 17.125-26.8 20.524l-1.96 5.752c4.837 3.007 8.89 9.413 9.412 17.256-17.125 3.269-33.466 10.85-33.466 23.924 0 7.582 6.536 11.373 14.38 11.373 13.203 0 25.623-13.596 27.584-29.283 15.164-5.883 25.884-15.165 32.682-30.33zm-57.914 59.09c-3.66 0-5.752-1.961-5.752-4.968 0-7.19 12.42-12.55 24.054-15.296-1.96 10.851-10.197 20.263-18.302 20.263" style="fill:#d62027;stroke-width:130.729"/><path d="M111.014 94.512c16.602 0 27.322-18.433 27.322-34.774 0-8.89-5.36-18.564-16.603-18.564-15.687 0-27.583 16.603-27.583 34.774 0 10.59 6.667 18.564 16.864 18.564m1.176-8.498c-5.098 0-8.759-3.79-8.759-10.98 0-12.028 7.844-25.624 16.864-25.624 5.883 0 8.76 4.968 8.76 10.85 0 11.766-7.975 25.754-16.865 25.754M51.401 1.563C41.074 1.302 26.824 4.57 17.151 11.76l4.444 8.628c7.844-6.405 19.217-9.935 29.283-9.674 17.256.393 31.244 11.112 30.46 34.774-.523 23.662-18.563 51.769-47.847 51.769-2.484 0-4.967-.13-7.451-.523 7.059-22.747 15.164-46.54 23.792-69.286H39.635c-7.843 21.962-15.687 44.97-23.008 67.064-4.575-1.569-8.759-3.66-11.765-6.014L.025 96.996c7.32 5.098 19.609 9.02 32.028 9.02 38.435 0 58.567-32.944 59.22-60.528.785-27.06-15.948-43.271-39.872-43.925" style="fill:#d62027;stroke-width:130.729"/></g></svg>