<?xml version="1.0" encoding="UTF-8" standalone="no"?>
<svg
   version="1.1"
   width="450.40005"
   height="665.91602"
   viewBox="0 0 409.4546 605.37821"
   id="svg691"
   sodipodi:docname="Dožínky_2025-1.svg"
   inkscape:version="1.4 (e7c3feb100, 2024-10-09)"
   xmlns:inkscape="http://www.inkscape.org/namespaces/inkscape"
   xmlns:sodipodi="http://sodipodi.sourceforge.net/DTD/sodipodi-0.dtd"
   xmlns="http://www.w3.org/2000/svg"
   xmlns:svg="http://www.w3.org/2000/svg">
  <defs
     id="defs691" />
  <sodipodi:namedview
     id="namedview691"
     pagecolor="#ffffff"
     bordercolor="#000000"
     borderopacity="0.25"
     inkscape:showpageshadow="false"
     inkscape:pageopacity="0.0"
     inkscape:pagecheckerboard="0"
     inkscape:deskcolor="#d1d1d1"
     inkscape:document-units="pt"
     borderlayer="false"
     showborder="false"
     inkscape:zoom="0.57986757"
     inkscape:cx="515.63497"
     inkscape:cy="438.03105"
     inkscape:window-width="2048"
     inkscape:window-height="1115"
     inkscape:window-x="0"
     inkscape:window-y="0"
     inkscape:window-maximized="1"
     inkscape:current-layer="svg691" />
  <g
     id="g698"
     inkscape:label="left-side"
     transform="translate(20.692847,-1.5334563)">
    <g
       id="g694"
       inkscape:label="leaf-fill">
      <path
         d="m 247.52914,152.23166 c 0,-20.0191 -15.47588,-36.24933 -15.47588,-36.24933 0,0 -15.47934,16.23023 -15.47934,36.24933 0,20.01912 15.47934,36.24934 15.47934,36.24934 0,0 15.47588,-16.23022 15.47588,-36.24934"
         fill="#064fa3"
         id="path3"
         style="stroke-width:3.44445" />
      <path
         d="M 248.04305,120.81877 C 233.0425,106.66211 231.74739,84.931105 231.74739,84.931105 c 0,0 23.02266,1.222778 38.02321,15.379445 15.00057,14.15667 16.29567,35.88767 16.29567,35.88767 0,0 -23.02267,-1.22277 -38.02322,-15.37945"
         fill="#064fa3"
         id="path4"
         style="stroke-width:3.44445" />
      <path
         d="m 217.25696,120.81877 c 15.00056,-14.15666 16.2957,-35.887665 16.2957,-35.887665 0,0 -23.02269,1.222778 -38.02324,15.379445 -15.00055,14.15667 -16.29568,35.88767 -16.29568,35.88767 0,0 23.02268,-1.22277 38.02322,-15.37945"
         fill="#064fa3"
         id="path5"
         style="stroke-width:3.44445" />
      <path
         d="M 248.04305,79.088309 C 233.04251,64.93164 231.74739,43.200637 231.74739,43.200637 c 0,0 23.02266,1.222778 38.02323,15.379447 15.00055,14.15667 16.29567,35.88767 16.29567,35.88767 0,0 -23.02269,-1.222778 -38.02324,-15.379445"
         fill="#064fa3"
         id="path6"
         style="stroke-width:3.44445" />
      <path
         d="m 217.25697,79.088309 c 15.00055,-14.156669 16.29569,-35.887672 16.29569,-35.887672 0,0 -23.02269,1.222778 -38.02324,15.379447 -15.00054,14.15667 -16.29568,35.88767 -16.29568,35.88767 0,0 23.02269,-1.222778 38.02323,-15.379445"
         fill="#064fa3"
         id="path7"
         style="stroke-width:3.44445" />
      <path
         d="M 248.04305,37.421125 C 233.04251,23.264457 231.74739,1.5334563 231.74739,1.5334563 c 0,0 23.02266,1.2227778 38.02323,15.3794457 15.00055,14.156667 16.29567,35.887666 16.29567,35.887666 0,0 -23.02269,-1.222776 -38.02324,-15.379443"
         fill="#064fa3"
         id="path8"
         style="stroke-width:3.44445" />
      <path
         d="m 217.25697,37.421125 c 15.00055,-14.156668 16.29569,-35.8876687 16.29569,-35.8876687 0,0 -23.02269,1.2227778 -38.02324,15.3794457 -15.00054,14.156667 -16.29568,35.887666 -16.29568,35.887666 0,0 23.02269,-1.222776 38.02323,-15.379443"
         fill="#064fa3"
         id="path9"
         style="stroke-width:3.44445" />
    </g>
    <g
       id="g695"
       inkscape:label="flower">
      <path
         d="m 78.532999,142.61923 c -1.412224,4.93244 1.436332,10.075 6.368777,11.49067 4.932444,1.41222 10.075,-1.43977 11.490667,-6.36878 1.412222,-4.93591 -1.436333,-10.07844 -6.368778,-11.49411 -4.932445,-1.41223 -10.075,1.43632 -11.490666,6.37222"
         fill="#d62027"
         id="path10"
         style="stroke-width:3.44445" />
      <path
         d="m 92.035217,129.22238 c -4.612112,-1.32266 -4.164335,-21.28667 -2.387,-27.48322 1.629222,-5.679892 7.198889,-9.069225 12.437893,-7.567446 5.239,1.501777 8.16333,7.329776 6.53755,13.009666 -1.77733,6.19656 -11.972888,23.36367 -16.588443,22.041"
         fill="#d62027"
         id="path11"
         style="stroke-width:3.44445" />
      <path
         d="m 82.548534,162.30662 c 4.612111,1.32268 4.164333,21.28323 2.387,27.47634 -1.629222,5.68332 -7.195446,9.07612 -12.43789,7.57432 -5.239,-1.50521 -8.166781,-7.33321 -6.537556,-13.0131 1.777333,-6.19311 11.97289,-23.36022 16.588446,-22.03756"
         fill="#d62027"
         id="path12"
         style="stroke-width:3.44445" />
      <path
         d="m 103.83485,150.50777 c 1.32266,-4.61212 21.28666,-4.16435 27.47977,-2.38702 5.68333,1.62924 9.07267,7.19545 7.5709,12.4379 -1.50523,5.23901 -7.32978,8.16678 -13.01313,6.53756 -6.19309,-1.77733 -23.36021,-11.9729 -22.03754,-16.58844"
         fill="#d62027"
         id="path13"
         style="stroke-width:3.44445" />
      <path
         d="m 70.748209,141.02042 c -1.322667,4.61211 -21.283226,4.16434 -27.476337,2.387 -5.686778,-1.62923 -9.072668,-7.19545 -7.57089,-12.4379 1.501777,-5.23899 7.326333,-8.16678 13.009668,-6.53756 6.193111,1.77735 23.360225,11.9729 22.037559,16.58846"
         fill="#d62027"
         id="path14"
         style="stroke-width:3.44445" />
      <path
         d="m 102.34409,137.41892 c -2.325,-4.19533 12.10723,-17.99722 17.74234,-21.11789 5.17011,-2.86578 11.50444,-1.32611 14.14634,3.44789 2.64188,4.76367 0.59243,10.94989 -4.57768,13.81567 -5.6351,3.12755 -24.986,8.05311 -27.311,3.85433"
         fill="#d62027"
         id="path15"
         style="stroke-width:3.44445" />
      <path
         d="m 72.24034,154.10504 c 2.324998,4.20223 -12.107227,17.99723 -17.742339,21.12133 -5.173556,2.86923 -11.504445,1.32612 -14.146335,-3.44445 -2.641888,-4.76367 -0.595888,-10.95333 4.574223,-13.81911 5.638556,-3.12754 24.986005,-8.05655 27.314451,-3.85777"
         fill="#d62027"
         id="path16"
         style="stroke-width:3.44445" />
      <path
         d="m 95.634999,160.81692 c 4.195333,-2.32845 17.997231,12.10379 21.117891,17.74234 2.86922,5.17011 1.32611,11.50445 -3.44101,14.14634 -4.7671,2.64189 -10.95677,0.59588 -13.822548,-4.57769 -3.124111,-5.6351 -8.053111,-24.98598 -3.854333,-27.31099"
         fill="#d62027"
         id="path17"
         style="stroke-width:3.44445" />
      <path
         d="m 78.948397,130.71041 c -4.198778,2.325 -17.997226,-12.10723 -21.117893,-17.74234 -2.869222,-5.17011 -1.326112,-11.501 3.440999,-14.142887 4.767115,-2.645334 10.956782,-0.595889 13.822559,4.574227 3.124114,5.63511 8.053113,24.98254 3.854335,27.311"
         fill="#d62027"
         id="path18"
         inkscape:transform-center-x="-27.217636"
         inkscape:transform-center-y="-183.71905"
         style="stroke-width:3.44445" />
    </g>
    <g
       id="g696"
       inkscape:label="waves">
      <path
         stroke-width="3.44445"
         stroke-linecap="round"
         stroke-linejoin="round"
         fill="none"
         stroke="#064fa3"
         d="m -18.970622,238.61313 c 29.08489,0 29.08489,23.72535 58.173226,23.72535 29.084892,0 29.084892,-23.72535 58.173228,-23.72535 29.084888,0 29.084888,23.72535 58.173228,23.72535 29.09177,0 29.09177,-23.72535 58.18355,-23.72535 29.09179,0 29.09179,23.72535 58.18357,23.72535 m -290.886802,31.44433 c 29.08489,0 29.08489,23.72877 58.173226,23.72877 29.084892,0 29.084892,-23.72877 58.173228,-23.72877 29.084888,0 29.084888,23.72877 58.173228,23.72877 29.09177,0 29.09177,-23.72877 58.18355,-23.72877 29.09179,0 29.09179,23.72877 58.18357,23.72877 m -290.886802,31.44434 c 29.08489,0 29.08489,23.72534 58.173226,23.72534 29.084892,0 29.084892,-23.72534 58.173228,-23.72534 29.084888,0 29.084888,23.72534 58.173228,23.72534 29.09177,0 29.09177,-23.72534 58.18355,-23.72534 29.09179,0 29.09179,23.72534 58.18357,23.72534 M -18.970622,404.1256 c 29.08489,0 29.08489,23.72877 58.173226,23.72877 29.084892,0 29.084892,-23.72877 58.173228,-23.72877 29.084888,0 29.084888,23.72877 58.173228,23.72877 29.09177,0 29.09177,-23.72877 58.18355,-23.72877 29.09179,0 29.09179,23.72877 58.18357,23.72877 m -290.886802,31.4443 c 29.08489,0 29.08489,23.72533 58.173226,23.72533 29.084892,0 29.084892,-23.72533 58.173228,-23.72533 29.084888,0 29.084888,23.72533 58.173228,23.72533 29.09177,0 29.09177,-23.72533 58.18355,-23.72533 29.09179,0 29.09179,23.72533 58.18357,23.72533"
         id="path19"
         sodipodi:nodetypes="cssssccssssccssssccssssccssssc" />
    </g>
    <g
       id="g697"
       inkscape:label="chicken">
      <path
         d="m 388.76173,471.0323 c -30.83811,-9.10021 -35.02656,-27.5142 -61.82778,-23.72533 -13.16466,1.86345 -19.40943,12.059 -23.76323,24.92055 -7.25743,21.43479 -11.89365,97.16781 -114.54155,52.44171 -4.24701,-33.44214 11.68699,-41.30235 9.10366,-53.51636 -1.96679,-10.19901 -10.97055,-17.44268 -21.25567,-15.98568 -10.2851,1.45356 -17.43921,10.97056 -15.98222,21.25567 1.42601,10.06123 5.642,25.95046 27.02168,48.93869 0.007,0.0654 0.007,0.12743 0.0138,0.18944 -51.03289,-22.6059 -39.72478,-52.36589 -59.16178,-60.74625 -13.09578,-6.60299 -28.960892,-2.78309 -36.208002,9.96478 -7.247113,12.75135 -2.786557,28.96092 9.964772,36.21147 12.41378,7.05077 40.38957,19.7401 84.42677,16.03733 -33.12865,18.60689 -51.22232,2.68323 -63.91854,10.4229 -10.71567,6.2551 -15.24511,19.39221 -9.45156,30.56946 5.79356,11.17721 19.41634,15.60677 30.43167,9.89931 10.74322,-5.5731 26.90111,-16.5919 44.14744,-49.83767 31.13435,127.43758 185.51091,87.41313 166.07733,-27.82078 -3.63387,-21.54845 20.84924,-23.38779 34.92323,-29.21924 m -93.55456,97.20914 -13.80532,-11.73522 -11.73866,13.80533 -13.80535,-11.73867 -11.73523,13.8019 -13.80532,-11.73179 11.73523,-13.80533 13.80532,11.73522 11.73868,-13.80534 13.80533,11.73868 11.73523,-13.80533 13.80188,11.73866 z m 42.07046,-95.31124 c -3.97834,-0.26178 -6.98877,-3.69934 -6.727,-7.67768 0.26177,-3.97488 3.69933,-6.98532 7.67767,-6.72355 3.97488,0.26178 6.98187,3.69933 6.72011,7.67423 -0.26178,3.97833 -3.69934,6.98879 -7.67078,6.727"
         fill="#d62027"
         id="path688"
         sodipodi:nodetypes="ccccccccccccccscccccccccccccccccccccc"
         style="stroke-width:3.44445" />
    </g>
  </g>
</svg>
