<?xml version="1.0" encoding="UTF-8" standalone="no"?>
<!-- Created with Inkscape (http://www.inkscape.org/) -->

<svg
   width="490.43588"
   height="768.61902"
   viewBox="0 0 122.60897 192.15475"
   version="1.1"
   id="svg1"
   inkscape:version="1.4 (e7c3feb100, 2024-10-09)"
   sodipodi:docname="right-side.svg"
   xmlns:inkscape="http://www.inkscape.org/namespaces/inkscape"
   xmlns:sodipodi="http://sodipodi.sourceforge.net/DTD/sodipodi-0.dtd"
   xmlns="http://www.w3.org/2000/svg"
   xmlns:svg="http://www.w3.org/2000/svg">
  <sodipodi:namedview
     id="namedview1"
     pagecolor="#ffffff"
     bordercolor="#000000"
     borderopacity="0.25"
     inkscape:showpageshadow="false"
     inkscape:pageopacity="0.0"
     inkscape:pagecheckerboard="0"
     inkscape:deskcolor="#d1d1d1"
     inkscape:document-units="px"
     showborder="false"
     borderlayer="false"
     inkscape:antialias-rendering="true"
     inkscape:zoom="1.1389101"
     inkscape:cx="354.28607"
     inkscape:cy="493.4542"
     inkscape:window-width="1920"
     inkscape:window-height="1011"
     inkscape:window-x="0"
     inkscape:window-y="0"
     inkscape:window-maximized="1"
     inkscape:current-layer="layer1" />
  <defs
     id="defs1" />
  <g
     inkscape:label="Layer 1"
     inkscape:groupmode="layer"
     id="layer1"
     transform="translate(-72.760421,53.975)">
    <g
       id="g701"
       inkscape:label="right-side"
       transform="matrix(0.35277777,0,0,0.35277777,-237.54711,-53.981938)">
      <g
         id="g21"
         data-name="Artifact"
         inkscape:label="prague-city">
        <path
           transform="matrix(2.7777777,0,0,-2.7777777,1130.115,161.5531)"
           stroke-width="1"
           stroke-linecap="round"
           stroke-linejoin="round"
           fill="none"
           stroke="#064fa3"
           d="M 0,0 -4.242,17.747 -8.485,0 h -3.388 v -19.308 l -7.073,20.673 -7.025,-20.468 v 18.688 h -3.388 l -4.243,18.162 -4.242,-18.162 h -3.388 v -19.08 l -6.596,6.554 h -20.203 l -10.177,-10.086 h 0.027 v -16.361 h -0.027 v -15.16 h 3.445 c 0,5.746 4.658,10.403 10.403,10.403 5.746,0 10.404,-4.657 10.404,-10.403 h 5.754 c 0,5.746 4.657,10.403 10.402,10.403 5.746,0 10.404,-4.657 10.404,-10.403 h 5.752 c 0,5.746 4.658,10.403 10.404,10.403 5.745,0 10.403,-4.657 10.403,-10.403 h 4.225 v 14.225 0.935 V 0 Z"
           id="path21" />
      </g>
      <g
         id="g699"
         inkscape:label="waves">
        <path
           transform="matrix(2.7777777,0,0,-2.7777777,984.70658,340.91865)"
           stroke-width="1"
           stroke-linecap="round"
           stroke-linejoin="round"
           fill="none"
           stroke="#064fa3"
           d="m 0,0 c 8.678,0 8.678,-7.073 17.356,-7.073 8.677,0 8.677,7.073 17.355,7.073 8.678,0 8.678,-7.073 17.356,-7.073 8.68,0 8.68,7.073 17.359,7.073 8.679,0 8.679,-7.073 17.359,-7.073 M 0,-16.448 c 8.678,0 8.678,-7.073 17.356,-7.073 8.677,0 8.677,7.073 17.355,7.073 8.678,0 8.678,-7.073 17.356,-7.073 8.68,0 8.68,7.073 17.359,7.073 8.679,0 8.679,-7.073 17.359,-7.073 M 0,-32.896 c 8.678,0 8.678,-7.073 17.356,-7.073 8.677,0 8.677,7.073 17.355,7.073 8.678,0 8.678,-7.073 17.356,-7.073 8.68,0 8.68,7.073 17.359,7.073 8.679,0 8.679,-7.073 17.359,-7.073 M 0,-49.344 c 8.678,0 8.678,-7.073 17.356,-7.073 8.677,0 8.677,7.073 17.355,7.073 8.678,0 8.678,-7.073 17.356,-7.073 8.68,0 8.68,7.073 17.359,7.073 8.679,0 8.679,-7.073 17.359,-7.073 M 0,-65.791 c 8.678,0 8.678,-7.074 17.356,-7.074 8.677,0 8.677,7.074 17.355,7.074 8.678,0 8.678,-7.074 17.356,-7.074 8.68,0 8.68,7.074 17.359,7.074 8.679,0 8.679,-7.074 17.359,-7.074"
           id="path72" />
      </g>
      <path
         transform="matrix(2.7777777,0,0,-2.7777777,982.35833,420.9469)"
         d="m 0,0 c 0,0 -11.013,10.848 -11.013,16.186 0,3.044 2.463,5.51 5.507,5.51 2.583,0 4.916,-1.784 5.506,-4.188 0.593,2.404 2.92,4.188 5.507,4.188 3.041,0 5.506,-2.466 5.506,-5.51 C 11.013,10.848 0,0 0,0"
         fill="#d62027"
         id="path687" />
      <g
         id="g700"
         inkscape:label="hearth" />
      <path
         transform="matrix(2.7777777,0,0,-2.7777777,922.40888,418.83003)"
         d="m 0,0 c -0.024,-0.026 -0.041,-0.055 -0.064,-0.081 0,0.034 0.008,0.064 0.008,0.098 0,4.012 -2.847,7.264 -2.847,7.264 0,0 -2.846,-3.252 -2.846,-7.264 0,-0.034 0.008,-0.064 0.008,-0.098 -0.024,0.026 -0.04,0.055 -0.064,0.081 -2.742,2.905 -7.026,3.28 -7.026,3.28 0,0 0.162,-4.336 2.903,-7.242 1.33,-1.409 3.017,-2.216 4.406,-2.68 -3.939,-0.963 -6.871,-4.475 -6.871,-8.692 0,-0.222 0.017,-0.507 0.033,-0.786 h 4.394 c 1.028,0 1.86,-0.829 1.86,-1.851 h -6.084 c 0.203,-1.67 0.559,-3.768 1.033,-5.996 h 2.425 c 1.027,0 1.86,-0.829 1.86,-1.852 h -3.87 c 1.632,-6.902 4.32,-14.326 7.367,-14.326 1.71,0 3.307,2.342 4.668,5.615 h -6.078 v 1.851 h 6.787 c 1.07,2.995 1.96,6.465 2.59,9.589 h -5.923 c 0,1.022 0.832,1.851 1.86,1.851 h 4.416 c 0.449,2.53 0.698,4.676 0.698,5.905 0,0.013 -0.004,0.025 -0.004,0.039 h -6.204 c 0,1.022 0.833,1.851 1.86,1.851 h 4.14 c -0.687,3.183 -3.076,5.716 -6.166,6.664 1.462,0.432 3.373,1.249 4.854,2.818 C 6.864,-1.056 7.025,3.28 7.025,3.28 7.025,3.28 2.742,2.905 0,0"
         fill="#064fa3"
         id="path71" />
      <g
         clip-path="url(#cp2)"
         id="g71"
         inkscape:label="carrot" />
      <g
         id="g20"
         data-name="Artifact"
         inkscape:label="note">
        <path
           transform="matrix(2.7777777,0,0,-2.7777777,983.31747,123.30814)"
           d="m 0,0 v 19.888 7.034 h -2.397 -21.932 -2.398 V 19.888 5.109 c -1.119,0.842 -2.548,1.348 -4.105,1.348 -3.591,0 -6.502,-2.685 -6.502,-5.996 0,-3.312 2.911,-5.997 6.502,-5.997 3.423,0 6.221,2.44 6.477,5.536 h 0.026 V 19.888 H -2.397 V 5.109 c -1.12,0.842 -2.548,1.348 -4.105,1.348 -3.592,0 -6.503,-2.685 -6.503,-5.996 0,-3.312 2.911,-5.997 6.503,-5.997 3.422,0 6.221,2.44 6.477,5.536 z"
           fill="#d62027"
           id="path20" />
      </g>
      <g
         clip-path="url(#cp0)"
         id="g2"
         inkscape:label="glass">
        <path
           transform="matrix(2.7777777,0,0,-2.7777777,1026.5573,0.01966688)"
           d="M 0,0 C 0.089,-6.705 4.318,-12.181 9.75,-12.955 V -25.457 H 6.028 v -2.146 h 10.115 v 2.146 h -3.722 v 12.511 c 5.423,0.774 9.652,6.25 9.741,12.946"
           fill="#064fa3"
           id="path2" />
      </g>
    </g>
  </g>
</svg>
