<svg xmlns="http://www.w3.org/2000/svg" width="80" height="540" viewBox="0 0 72.727 490.909"><g fill="#064fa3" style="stroke-width:2.21576"><path d="M247.53 152.232c0-20.02-15.477-36.25-15.477-36.25s-15.48 16.23-15.48 36.25c0 20.019 15.48 36.249 15.48 36.249s15.476-16.23 15.476-36.25m.514-31.412c-15-14.157-16.296-35.888-16.296-35.888s23.023 1.223 38.024 15.38c15 14.156 16.295 35.887 16.295 35.887s-23.022-1.223-38.023-15.38" style="stroke-width:7.63208" transform="translate(-68.634 5.157)scale(.45131)"/><path d="M217.257 120.819c15-14.157 16.296-35.888 16.296-35.888s-23.023 1.223-38.024 15.38c-15 14.156-16.295 35.887-16.295 35.887s23.022-1.223 38.023-15.38m30.786-41.73c-15-14.156-16.296-35.887-16.296-35.887s23.023 1.222 38.024 15.38c15 14.156 16.295 35.887 16.295 35.887s-23.022-1.223-38.023-15.38" style="stroke-width:7.63208" transform="translate(-68.634 5.157)scale(.45131)"/><path d="M217.257 79.088c15-14.156 16.296-35.887 16.296-35.887s-23.023 1.222-38.024 15.38c-15 14.156-16.295 35.887-16.295 35.887s23.022-1.223 38.023-15.38m30.786-41.667c-15-14.157-16.296-35.888-16.296-35.888s23.023 1.223 38.024 15.38c15 14.157 16.295 35.888 16.295 35.888s-23.022-1.223-38.023-15.38" style="stroke-width:7.63208" transform="translate(-68.634 5.157)scale(.45131)"/><path d="M217.257 37.421c15-14.157 16.296-35.888 16.296-35.888s-23.023 1.223-38.024 15.38c-15 14.157-16.295 35.888-16.295 35.888s23.022-1.223 38.023-15.38" style="stroke-width:7.63208" transform="translate(-68.634 5.157)scale(.45131)"/></g><g style="stroke-width:1.72219"><path fill="#d62027" d="M78.533 142.62a9.29 9.29 0 0 0 6.369 11.49 9.294 9.294 0 0 0 11.49-6.369 9.29 9.29 0 1 0-17.86-5.122m13.503-13.397c-4.612-1.322-4.164-21.286-2.387-27.483 1.63-5.68 7.2-9.07 12.438-7.567 5.24 1.501 8.163 7.33 6.538 13.01-1.778 6.196-11.973 23.363-16.589 22.04m-9.486 33.085c4.612 1.322 4.164 21.283 2.387 27.476-1.63 5.683-7.196 9.076-12.438 7.574-5.24-1.505-8.167-7.333-6.538-13.013 1.777-6.193 11.973-23.36 16.589-22.037m21.286-11.799c1.323-4.612 21.287-4.165 27.48-2.387 5.683 1.629 9.072 7.195 7.57 12.438-1.505 5.239-7.33 8.166-13.013 6.537-6.193-1.777-23.36-11.973-22.037-16.588m-33.087-9.488c-1.322 4.613-21.283 4.165-27.476 2.387-5.687-1.629-9.073-7.195-7.571-12.437 1.502-5.24 7.326-8.167 13.01-6.538 6.193 1.777 23.36 11.973 22.037 16.588m31.596-3.601c-2.325-4.195 12.107-17.997 17.742-21.118 5.17-2.866 11.505-1.326 14.147 3.448 2.642 4.764.592 10.95-4.578 13.816-5.635 3.127-24.986 8.053-27.31 3.854M72.24 154.105c2.325 4.202-12.107 17.997-17.742 21.121-5.174 2.87-11.504 1.326-14.146-3.444-2.642-4.764-.596-10.953 4.574-13.82 5.638-3.127 24.986-8.056 27.314-3.857m23.395 6.712c4.195-2.329 17.997 12.104 21.118 17.742 2.87 5.17 1.326 11.505-3.441 14.147s-10.957.595-13.823-4.578c-3.124-5.635-8.053-24.986-3.854-27.311M78.948 130.71c-4.198 2.325-17.997-12.107-21.117-17.742-2.87-5.17-1.327-11.5 3.44-14.143 4.768-2.645 10.957-.596 13.823 4.574 3.124 5.636 8.053 24.983 3.854 27.311" style="stroke-width:5.93199" transform="translate(-14.324 45.627)scale(.58066)"/></g><path fill="#d62027" d="M0 0v26.922h-26.727V5.109a6.8 6.8 0 0 1-4.105 1.348c-3.591 0-6.502-2.685-6.502-5.996s2.911-5.997 6.502-5.997c3.423 0 6.221 2.44 6.477 5.536h.026v19.888h21.932V5.109a6.8 6.8 0 0 1-4.105 1.348c-3.592 0-6.503-2.685-6.503-5.996s2.911-5.997 6.503-5.997C-3.08-5.536-.281-3.096-.025 0z" data-name="Artifact" style="stroke-width:2.30035" transform="matrix(1.54908 0 0 -1.54908 64.84 299.793)"/><path fill="#064fa3" d="M4.395 116.36c.207 15.542 10.01 28.236 22.602 30.03v28.981h-8.628v4.975h23.447v-4.975h-8.628v-29.002c12.572-1.794 22.375-14.488 22.581-30.01" style="stroke-width:3.56341" transform="translate(6.281 59.438)"/><path fill="#d62027" d="M30.082 422.325S.908 393.59.908 379.448c0-8.064 6.525-14.596 14.589-14.596 6.842 0 13.022 4.726 14.585 11.094 1.571-6.368 7.735-11.094 14.589-11.094 8.055 0 14.585 6.532 14.585 14.596 0 14.14-29.174 42.877-29.174 42.877" style="stroke-width:3.56341" transform="translate(6.281 59.438)"/><path fill="#064fa3" d="M35.098 279.757c-.042.045-.071.095-.11.14 0-.059.013-.11.013-.17 0-6.93-4.919-12.55-4.919-12.55s-4.917 5.62-4.917 12.55c0 .06.014.111.014.17-.041-.045-.069-.095-.11-.14-4.738-5.019-12.14-5.667-12.14-5.667s.28 7.491 5.016 12.512c2.298 2.434 5.213 3.829 7.612 4.63-6.805 1.664-11.87 7.732-11.87 15.017 0 .384.029.876.057 1.358h7.591a3.205 3.205 0 0 1 3.213 3.198h-10.51c.35 2.885.965 6.51 1.784 10.36h4.19a3.207 3.207 0 0 1 3.213 3.199H16.54c2.82 11.924 7.464 24.75 12.728 24.75 2.954 0 5.713-4.046 8.065-9.7H26.83v-3.198h11.725c1.85-5.175 3.387-11.17 4.475-16.567H32.798a3.205 3.205 0 0 1 3.214-3.198h7.629c.776-4.37 1.206-8.079 1.206-10.202 0-.022-.007-.043-.007-.067H34.122a3.206 3.206 0 0 1 3.213-3.198h7.153c-1.187-5.5-5.315-9.876-10.653-11.513 2.526-.747 5.827-2.158 8.386-4.869 4.735-5.02 5.014-12.512 5.014-12.512s-7.4.648-12.137 5.667" style="stroke-width:3.56341" transform="translate(6.281 59.438)"/></svg>