<svg xmlns="http://www.w3.org/2000/svg" width="80" height="880" viewBox="0 0 72.727 800"><defs><clipPath id="a"><path d="M0 1653.544h1165.356V0H0Z"/></clipPath></defs><g fill="#064fa3" style="stroke-width:2.21576"><path d="M247.53 152.232c0-20.02-15.477-36.25-15.477-36.25s-15.48 16.23-15.48 36.25c0 20.019 15.48 36.249 15.48 36.249s15.476-16.23 15.476-36.25m.514-31.412c-15-14.157-16.296-35.888-16.296-35.888s23.023 1.223 38.024 15.38c15 14.156 16.295 35.887 16.295 35.887s-23.022-1.223-38.023-15.38" style="stroke-width:7.63208" transform="translate(-68.634 5.157)scale(.45131)"/><path d="M217.257 120.819c15-14.157 16.296-35.888 16.296-35.888s-23.023 1.223-38.024 15.38c-15 14.156-16.295 35.887-16.295 35.887s23.022-1.223 38.023-15.38m30.786-41.73c-15-14.156-16.296-35.887-16.296-35.887s23.023 1.222 38.024 15.38c15 14.156 16.295 35.887 16.295 35.887s-23.022-1.223-38.023-15.38" style="stroke-width:7.63208" transform="translate(-68.634 5.157)scale(.45131)"/><path d="M217.257 79.088c15-14.156 16.296-35.887 16.296-35.887s-23.023 1.222-38.024 15.38c-15 14.156-16.295 35.887-16.295 35.887s23.022-1.223 38.023-15.38m30.786-41.667c-15-14.157-16.296-35.888-16.296-35.888s23.023 1.223 38.024 15.38c15 14.157 16.295 35.888 16.295 35.888s-23.022-1.223-38.023-15.38" style="stroke-width:7.63208" transform="translate(-68.634 5.157)scale(.45131)"/><path d="M217.257 37.421c15-14.157 16.296-35.888 16.296-35.888s-23.023 1.223-38.024 15.38c-15 14.157-16.295 35.888-16.295 35.888s23.022-1.223 38.023-15.38" style="stroke-width:7.63208" transform="translate(-68.634 5.157)scale(.45131)"/></g><g style="stroke-width:1.72219"><path fill="#d62027" d="M78.533 142.62a9.29 9.29 0 0 0 6.369 11.49 9.294 9.294 0 0 0 11.49-6.369 9.29 9.29 0 1 0-17.86-5.122m13.503-13.397c-4.612-1.322-4.164-21.286-2.387-27.483 1.63-5.68 7.2-9.07 12.438-7.567 5.24 1.501 8.163 7.33 6.538 13.01-1.778 6.196-11.973 23.363-16.589 22.04m-9.486 33.085c4.612 1.322 4.164 21.283 2.387 27.476-1.63 5.683-7.196 9.076-12.438 7.574-5.24-1.505-8.167-7.333-6.538-13.013 1.777-6.193 11.973-23.36 16.589-22.037m21.286-11.799c1.323-4.612 21.287-4.165 27.48-2.387 5.683 1.629 9.072 7.195 7.57 12.438-1.505 5.239-7.33 8.166-13.013 6.537-6.193-1.777-23.36-11.973-22.037-16.588m-33.087-9.488c-1.322 4.613-21.283 4.165-27.476 2.387-5.687-1.629-9.073-7.195-7.571-12.437 1.502-5.24 7.326-8.167 13.01-6.538 6.193 1.777 23.36 11.973 22.037 16.588m31.596-3.601c-2.325-4.195 12.107-17.997 17.742-21.118 5.17-2.866 11.505-1.326 14.147 3.448 2.642 4.764.592 10.95-4.578 13.816-5.635 3.127-24.986 8.053-27.31 3.854M72.24 154.105c2.325 4.202-12.107 17.997-17.742 21.121-5.174 2.87-11.504 1.326-14.146-3.444-2.642-4.764-.596-10.953 4.574-13.82 5.638-3.127 24.986-8.056 27.314-3.857m23.395 6.712c4.195-2.329 17.997 12.104 21.118 17.742 2.87 5.17 1.326 11.505-3.441 14.147s-10.957.595-13.823-4.578c-3.124-5.635-8.053-24.986-3.854-27.311M78.948 130.71c-4.198 2.325-17.997-12.107-21.117-17.742-2.87-5.17-1.327-11.5 3.44-14.143 4.768-2.645 10.957-.596 13.823 4.574 3.124 5.636 8.053 24.983 3.854 27.311" style="stroke-width:5.93199" transform="translate(-14.324 45.627)scale(.58066)"/></g><path fill="#d62027" d="M0 0v26.922h-26.727V5.109a6.8 6.8 0 0 1-4.105 1.348c-3.591 0-6.502-2.685-6.502-5.996s2.911-5.997 6.502-5.997c3.423 0 6.221 2.44 6.477 5.536h.026v19.888h21.932V5.109a6.8 6.8 0 0 1-4.105 1.348c-3.592 0-6.503-2.685-6.503-5.996s2.911-5.997 6.503-5.997C-3.08-5.536-.281-3.096-.025 0z" data-name="Artifact" style="stroke-width:2.30035" transform="matrix(1.54908 0 0 -1.54908 64.84 299.793)"/><path fill="none" stroke="#064fa3" stroke-linecap="round" stroke-linejoin="round" stroke-width="17.442" d="M-18.97 238.613c29.084 0 29.084 23.725 58.173 23.725 29.084 0 29.084-23.725 58.173-23.725 29.085 0 29.085 23.725 58.173 23.725 29.092 0 29.092-23.725 58.184-23.725s29.091 23.725 58.183 23.725M-18.97 293.783c29.085 0 29.085 23.729 58.174 23.729 29.084 0 29.084-23.73 58.173-23.73 29.085 0 29.085 23.73 58.173 23.73 29.092 0 29.092-23.73 58.184-23.73s29.091 23.73 58.183 23.73M-18.97 348.956c29.085 0 29.085 23.725 58.174 23.725 29.084 0 29.084-23.725 58.173-23.725 29.085 0 29.085 23.725 58.173 23.725 29.092 0 29.092-23.725 58.184-23.725s29.091 23.725 58.183 23.725M-18.97 404.126c29.085 0 29.085 23.728 58.174 23.728 29.084 0 29.084-23.728 58.173-23.728 29.085 0 29.085 23.728 58.173 23.728 29.092 0 29.092-23.728 58.184-23.728s29.091 23.728 58.183 23.728M-18.97 459.3c29.085 0 29.085 23.725 58.174 23.725 29.084 0 29.084-23.725 58.173-23.725 29.085 0 29.085 23.725 58.173 23.725 29.092 0 29.092-23.725 58.184-23.725s29.091 23.725 58.183 23.725" style="stroke-width:5.06391" transform="matrix(.1928 0 0 .20226 11.979 452.016)"/><path fill="#064fa3" d="M4.395 116.36c.207 15.542 10.01 28.236 22.602 30.03v28.981h-8.628v4.975h23.447v-4.975h-8.628v-29.002c12.572-1.794 22.375-14.488 22.581-30.01" style="stroke-width:3.56341" transform="translate(6.281 59.438)"/><path fill="#d62027" d="M30.082 422.325S.908 393.59.908 379.448c0-8.064 6.525-14.596 14.589-14.596 6.842 0 13.022 4.726 14.585 11.094 1.571-6.368 7.735-11.094 14.589-11.094 8.055 0 14.585 6.532 14.585 14.596 0 14.14-29.174 42.877-29.174 42.877" style="stroke-width:3.56341" transform="translate(6.281 59.438)"/><path fill="#064fa3" d="M35.098 279.757c-.042.045-.071.095-.11.14 0-.059.013-.11.013-.17 0-6.93-4.919-12.55-4.919-12.55s-4.917 5.62-4.917 12.55c0 .06.014.111.014.17-.041-.045-.069-.095-.11-.14-4.738-5.019-12.14-5.667-12.14-5.667s.28 7.491 5.016 12.512c2.298 2.434 5.213 3.829 7.612 4.63-6.805 1.664-11.87 7.732-11.87 15.017 0 .384.029.876.057 1.358h7.591a3.205 3.205 0 0 1 3.213 3.198h-10.51c.35 2.885.965 6.51 1.784 10.36h4.19a3.207 3.207 0 0 1 3.213 3.199H16.54c2.82 11.924 7.464 24.75 12.728 24.75 2.954 0 5.713-4.046 8.065-9.7H26.83v-3.198h11.725c1.85-5.175 3.387-11.17 4.475-16.567H32.798a3.205 3.205 0 0 1 3.214-3.198h7.629c.776-4.37 1.206-8.079 1.206-10.202 0-.022-.007-.043-.007-.067H34.122a3.206 3.206 0 0 1 3.213-3.198h7.153c-1.187-5.5-5.315-9.876-10.653-11.513 2.526-.747 5.827-2.158 8.386-4.869 4.735-5.02 5.014-12.512 5.014-12.512s-7.4.648-12.137 5.667" style="stroke-width:3.56341" transform="translate(6.281 59.438)"/><g fill="none" stroke="#d62027" stroke-linecap="round" stroke-linejoin="round" stroke-width="2.022" style="stroke:#064fa3;stroke-width:1.68464;stroke-opacity:1"><path d="M0 0c-.677.431-.866 5.198-.282 7.234.381 1.33 1.668 2.131 2.869 1.787 1.2-.345 1.867-1.706 1.486-3.035C3.489 3.948.802.006 0 0" style="stroke:#064fa3;stroke-width:1.68464;stroke-opacity:1" transform="matrix(1.99864 0 0 -1.99864 39.448 674.436)"/><path d="M0 0c-.174.785 3.062 4.288 4.915 5.314a2.63 2.63 0 0 0 1.896.274c.611-.149 1.107-.518 1.396-1.04.289-.521.339-1.136.141-1.733a2.62 2.62 0 0 0-1.236-1.463C5.259.324.572-.563 0 0" style="stroke:#064fa3;stroke-width:1.68464;stroke-opacity:1" transform="matrix(1.99864 0 0 -1.99864 46.15 679.766)"/><path d="M0 0c.677-.431.866-5.197.283-7.233-.382-1.33-1.669-2.131-2.869-1.787s-1.868 1.706-1.487 3.036C-3.489-3.948-.802-.006 0 0" style="stroke:#064fa3;stroke-width:1.68464;stroke-opacity:1" transform="matrix(1.99864 0 0 -1.99864 33.28 695.947)"/><path d="M0 0c.432.677 5.198.866 7.234.282 1.329-.381 2.13-1.668 1.786-2.868-.344-1.201-1.706-1.868-3.035-1.487C3.948-3.489.007-.803 0 0" style="stroke:#064fa3;stroke-width:1.68464;stroke-opacity:1" transform="matrix(1.99864 0 0 -1.99864 47.12 688.276)"/><path d="M0 0c-.431-.677-5.197-.866-7.233-.283-1.33.382-2.131 1.669-1.787 2.869.345 1.201 1.706 1.868 3.036 1.487C-3.947 3.489-.006.802 0 0" style="stroke:#064fa3;stroke-width:1.68464;stroke-opacity:1" transform="matrix(1.99864 0 0 -1.99864 25.608 682.107)"/><path d="M0 0c.784.174 4.288-3.062 5.314-4.915.33-.594.427-1.267.274-1.896a2.15 2.15 0 0 0-1.039-1.395 2.14 2.14 0 0 0-1.734-.142 2.63 2.63 0 0 0-1.463 1.237C.325-5.258-.563-.572 0 0" style="stroke:#064fa3;stroke-width:1.68464;stroke-opacity:1" transform="matrix(1.99864 0 0 -1.99864 41.788 694.978)"/><path d="M0 0c-.784-.173-4.288 3.062-5.315 4.915a2.63 2.63 0 0 0-.273 1.896c.149.61.517 1.106 1.038 1.394.522.29 1.138.34 1.735.143a2.63 2.63 0 0 0 1.463-1.237C-.324 5.258.564.572 0 0" style="stroke:#064fa3;stroke-width:1.68464;stroke-opacity:1" transform="matrix(1.99864 0 0 -1.99864 30.94 675.403)"/><path d="M0 0c.174-.784-3.062-4.288-4.915-5.315a2.62 2.62 0 0 0-1.896-.274c-.611.149-1.107.518-1.396 1.04-.289.52-.339 1.136-.141 1.733a2.62 2.62 0 0 0 1.236 1.463C-5.259-.325-.573.563 0 0" style="stroke:#064fa3;stroke-width:1.68464;stroke-opacity:1" transform="matrix(1.99864 0 0 -1.99864 26.577 690.614)"/><path d="M0 0a2.1 2.1 0 0 1 1.438-2.594 2.1 2.1 0 0 1 2.593 1.438 2.1 2.1 0 0 1-1.437 2.594A2.1 2.1 0 0 1 0 0" style="stroke:#064fa3;stroke-width:1.68464;stroke-opacity:1" transform="matrix(1.99864 0 0 -1.99864 32.434 683.697)"/></g><path fill="none" stroke="#d62027" stroke-linecap="round" stroke-linejoin="round" stroke-width="1.549" d="M0 0s-11.013 10.848-11.013 16.186a5.506 5.506 0 0 0 5.507 5.51c2.583 0 4.916-1.784 5.506-4.188.593 2.404 2.92 4.188 5.507 4.188a5.507 5.507 0 0 0 5.506-5.51C11.013 10.848 0 0 0 0" data-name="Artifact" style="stroke-width:1.29075" transform="matrix(2.60887 0 0 -2.60827 36.364 792.234)"/><g stroke="#064fa3" stroke-linecap="round" stroke-linejoin="round" clip-path="url(#a)" style="fill:none;fill-opacity:1;stroke:#d62027;stroke-width:1.95124;stroke-opacity:1" transform="matrix(.61037 0 0 .63223 -521.725 291.956)"><path stroke-width="6.504" d="M936.377 490.29h-15.536a1.666 1.666 0 0 1-1.667-1.666c0-3.756 3.064-6.808 6.834-6.808h9.336c-3.006-9.59-12.075-16.35-22.311-16.35-12.892 0-23.384 10.436-23.384 23.266q0 .242.012.517h10.622c3.766 0 6.833 3.055 6.833 6.808 0 .922-.747 1.667-1.667 1.667h-15.005c.542 3.975 1.35 8.597 2.325 13.322h5.386c3.767 0 6.833 3.056 6.833 6.808 0 .923-.747 1.667-1.666 1.667h-8.634c5.47 22.225 12.606 36.461 18.345 36.461 3.166 0 6.836-4.33 10.428-12.26h-14.342c-.92 0-1.667-.748-1.667-1.668v-5.141c0-.922.747-1.667 1.667-1.667h17.672c2.342-6.753 4.558-14.917 6.328-23.303H918.71c-.92 0-1.667-.747-1.667-1.666 0-3.753 3.067-6.809 6.833-6.809h10.867c.908-5.325 1.48-9.966 1.633-13.177" style="fill:none;fill-opacity:1;stroke:#d62027;stroke-opacity:1"/><path stroke-width="2.341" d="M0 0c-.158-.199-.444-.304-.685-.221-.245.083-.429.288-.427.547.006 2.843-1.471 5.291-2.239 6.371-.768-1.076-2.245-3.506-2.245-6.28.002-.248-.145-.518-.375-.61-.231-.091-.49-.077-.659.106-1.946 2.072-4.685 2.813-5.975 3.059.178-1.311.766-4.109 2.666-6.122 2.548-2.7 6.597-3.09 6.637-3.093-.055.003 3.993.393 6.541 3.093 1.9 2.013 2.489 4.811 2.666 6.121C4.618 2.728 1.895 2 0 0" style="fill:none;fill-opacity:1;stroke:#d62027;stroke-opacity:1" transform="matrix(2.77778 0 0 -2.77778 923.652 447.249)"/></g></svg>