<svg xmlns="http://www.w3.org/2000/svg" version="1.1" xmlns:xlink="http://www.w3.org/1999/xlink" xmlns:svgjs="http://svgjs.dev/svgjs" width="130" height="130"><svg xmlns="http://www.w3.org/2000/svg" width="130" height="130" viewBox="0 0 118.182 118.182"><g transform="translate(20.693 -1.533)"><rect width="118.182" height="118.182" x="-20.693" y="1.533" ry="22.536" style="fill:#064fa3;fill-opacity:1;stroke-width:.747132"></rect><g style="fill:#fff;fill-opacity:1"><path fill="#d62027" d="M78.533 142.62a9.29 9.29 0 0 0 6.369 11.49 9.294 9.294 0 0 0 11.49-6.369 9.29 9.29 0 1 0-17.86-5.122m13.503-13.397c-4.612-1.322-4.164-21.286-2.387-27.483 1.63-5.68 7.2-9.07 12.438-7.567 5.24 1.501 8.163 7.33 6.538 13.01-1.778 6.196-11.973 23.363-16.589 22.04m-9.486 33.085c4.612 1.322 4.164 21.283 2.387 27.476-1.63 5.683-7.196 9.076-12.438 7.574-5.24-1.505-8.167-7.333-6.538-13.013 1.777-6.193 11.973-23.36 16.589-22.037m21.286-11.799c1.323-4.612 21.287-4.165 27.48-2.387 5.683 1.629 9.072 7.195 7.57 12.438-1.505 5.239-7.33 8.166-13.013 6.537-6.193-1.777-23.36-11.973-22.037-16.588m-33.087-9.488c-1.322 4.613-21.283 4.165-27.476 2.387-5.687-1.629-9.073-7.195-7.571-12.437 1.502-5.24 7.326-8.167 13.01-6.538 6.193 1.777 23.36 11.973 22.037 16.588m31.596-3.601c-2.325-4.195 12.107-17.997 17.742-21.118 5.17-2.866 11.505-1.326 14.147 3.448 2.642 4.764.592 10.95-4.578 13.816-5.635 3.127-24.986 8.053-27.31 3.854M72.24 154.105c2.325 4.202-12.107 17.997-17.742 21.121-5.174 2.87-11.504 1.326-14.146-3.444-2.642-4.764-.596-10.953 4.574-13.82 5.638-3.127 24.986-8.056 27.314-3.857m23.395 6.712c4.195-2.329 17.997 12.104 21.118 17.742 2.87 5.17 1.326 11.505-3.441 14.147s-10.957.595-13.823-4.578c-3.124-5.635-8.053-24.986-3.854-27.311M78.948 130.71c-4.198 2.325-17.997-12.107-21.117-17.742-2.87-5.17-1.327-11.5 3.44-14.143 4.768-2.645 10.957-.596 13.823 4.574 3.124 5.636 8.053 24.983 3.854 27.311" style="fill:#fff;fill-opacity:1;stroke-width:3.44445" transform="translate(-39.115 -68.81)scale(.88797)"></path></g></g></svg><style>@media (prefers-color-scheme: light) { :root { filter: none; } }
@media (prefers-color-scheme: dark) { :root { filter: none; } }
</style></svg>