<?xml version="1.0" encoding="UTF-8" standalone="no"?>
<svg
   version="1.1"
   width="80"
   height="880"
   viewBox="0 0 72.727272 800.00001"
   id="svg691"
   sodipodi:docname="stripe.svg"
   inkscape:version="1.4 (e7c3feb100, 2024-10-09)"
   xmlns:inkscape="http://www.inkscape.org/namespaces/inkscape"
   xmlns:sodipodi="http://sodipodi.sourceforge.net/DTD/sodipodi-0.dtd"
   xmlns="http://www.w3.org/2000/svg"
   xmlns:svg="http://www.w3.org/2000/svg">
  <defs
     id="defs691">
    <clipPath
       id="cp2">
      <path
         transform="matrix(2.7777777,0,0,-2.7777777,0,1653.5444)"
         d="M 0,0 H 419.528 V 595.276 H 0 Z"
         id="path72" />
    </clipPath>
  </defs>
  <sodipodi:namedview
     id="namedview691"
     pagecolor="#ffffff"
     bordercolor="#000000"
     borderopacity="0.25"
     inkscape:showpageshadow="false"
     inkscape:pageopacity="0.0"
     inkscape:pagecheckerboard="0"
     inkscape:deskcolor="#d1d1d1"
     inkscape:document-units="pt"
     borderlayer="false"
     showborder="false"
     inkscape:zoom="0.82005658"
     inkscape:cx="-434.11639"
     inkscape:cy="462.16323"
     inkscape:window-width="2048"
     inkscape:window-height="1115"
     inkscape:window-x="0"
     inkscape:window-y="0"
     inkscape:window-maximized="1"
     inkscape:current-layer="g698" />
  <g
     id="g698"
     inkscape:label="left-side"
     transform="translate(6.2814243,59.437947)">
    <g
       id="g694"
       inkscape:label="leaf-fill"
       transform="matrix(0.45131205,0,0,0.45131205,-74.915543,-54.280501)"
       style="stroke-width:2.21576">
      <path
         d="m 247.52914,152.23166 c 0,-20.0191 -15.47588,-36.24933 -15.47588,-36.24933 0,0 -15.47934,16.23023 -15.47934,36.24933 0,20.01912 15.47934,36.24934 15.47934,36.24934 0,0 15.47588,-16.23022 15.47588,-36.24934"
         fill="#064fa3"
         id="path3"
         style="stroke-width:7.63208" />
      <path
         d="M 248.04305,120.81877 C 233.0425,106.66211 231.74739,84.931105 231.74739,84.931105 c 0,0 23.02266,1.222778 38.02321,15.379445 15.00057,14.15667 16.29567,35.88767 16.29567,35.88767 0,0 -23.02267,-1.22277 -38.02322,-15.37945"
         fill="#064fa3"
         id="path4"
         style="stroke-width:7.63208" />
      <path
         d="m 217.25696,120.81877 c 15.00056,-14.15666 16.2957,-35.887665 16.2957,-35.887665 0,0 -23.02269,1.222778 -38.02324,15.379445 -15.00055,14.15667 -16.29568,35.88767 -16.29568,35.88767 0,0 23.02268,-1.22277 38.02322,-15.37945"
         fill="#064fa3"
         id="path5"
         style="stroke-width:7.63208" />
      <path
         d="M 248.04305,79.088309 C 233.04251,64.93164 231.74739,43.200637 231.74739,43.200637 c 0,0 23.02266,1.222778 38.02323,15.379447 15.00055,14.15667 16.29567,35.88767 16.29567,35.88767 0,0 -23.02269,-1.222778 -38.02324,-15.379445"
         fill="#064fa3"
         id="path6"
         style="stroke-width:7.63208" />
      <path
         d="m 217.25697,79.088309 c 15.00055,-14.156669 16.29569,-35.887672 16.29569,-35.887672 0,0 -23.02269,1.222778 -38.02324,15.379447 -15.00054,14.15667 -16.29568,35.88767 -16.29568,35.88767 0,0 23.02269,-1.222778 38.02323,-15.379445"
         fill="#064fa3"
         id="path7"
         style="stroke-width:7.63208" />
      <path
         d="M 248.04305,37.421125 C 233.04251,23.264457 231.74739,1.5334563 231.74739,1.5334563 c 0,0 23.02266,1.2227778 38.02323,15.3794457 15.00055,14.156667 16.29567,35.887666 16.29567,35.887666 0,0 -23.02269,-1.222776 -38.02324,-15.379443"
         fill="#064fa3"
         id="path8"
         style="stroke-width:7.63208" />
      <path
         d="m 217.25697,37.421125 c 15.00055,-14.156668 16.29569,-35.8876687 16.29569,-35.8876687 0,0 -23.02269,1.2227778 -38.02324,15.3794457 -15.00054,14.156667 -16.29568,35.887666 -16.29568,35.887666 0,0 23.02269,-1.222776 38.02323,-15.379443"
         fill="#064fa3"
         id="path9"
         style="stroke-width:7.63208" />
    </g>
    <g
       id="g695"
       inkscape:label="flower"
       transform="matrix(0.58065514,0,0,0.58065514,-20.604997,-13.810571)"
       style="stroke-width:1.72219">
      <path
         d="m 78.532999,142.61923 c -1.412224,4.93244 1.436332,10.075 6.368777,11.49067 4.932444,1.41222 10.075,-1.43977 11.490667,-6.36878 1.412222,-4.93591 -1.436333,-10.07844 -6.368778,-11.49411 -4.932445,-1.41223 -10.075,1.43632 -11.490666,6.37222"
         fill="#d62027"
         id="path10"
         style="stroke-width:5.93199" />
      <path
         d="m 92.035217,129.22238 c -4.612112,-1.32266 -4.164335,-21.28667 -2.387,-27.48322 1.629222,-5.679892 7.198889,-9.069225 12.437893,-7.567446 5.239,1.501777 8.16333,7.329776 6.53755,13.009666 -1.77733,6.19656 -11.972888,23.36367 -16.588443,22.041"
         fill="#d62027"
         id="path11"
         style="stroke-width:5.93199" />
      <path
         d="m 82.548534,162.30662 c 4.612111,1.32268 4.164333,21.28323 2.387,27.47634 -1.629222,5.68332 -7.195446,9.07612 -12.43789,7.57432 -5.239,-1.50521 -8.166781,-7.33321 -6.537556,-13.0131 1.777333,-6.19311 11.97289,-23.36022 16.588446,-22.03756"
         fill="#d62027"
         id="path12"
         style="stroke-width:5.93199" />
      <path
         d="m 103.83485,150.50777 c 1.32266,-4.61212 21.28666,-4.16435 27.47977,-2.38702 5.68333,1.62924 9.07267,7.19545 7.5709,12.4379 -1.50523,5.23901 -7.32978,8.16678 -13.01313,6.53756 -6.19309,-1.77733 -23.36021,-11.9729 -22.03754,-16.58844"
         fill="#d62027"
         id="path13"
         style="stroke-width:5.93199" />
      <path
         d="m 70.748209,141.02042 c -1.322667,4.61211 -21.283226,4.16434 -27.476337,2.387 -5.686778,-1.62923 -9.072668,-7.19545 -7.57089,-12.4379 1.501777,-5.23899 7.326333,-8.16678 13.009668,-6.53756 6.193111,1.77735 23.360225,11.9729 22.037559,16.58846"
         fill="#d62027"
         id="path14"
         style="stroke-width:5.93199" />
      <path
         d="m 102.34409,137.41892 c -2.325,-4.19533 12.10723,-17.99722 17.74234,-21.11789 5.17011,-2.86578 11.50444,-1.32611 14.14634,3.44789 2.64188,4.76367 0.59243,10.94989 -4.57768,13.81567 -5.6351,3.12755 -24.986,8.05311 -27.311,3.85433"
         fill="#d62027"
         id="path15"
         style="stroke-width:5.93199" />
      <path
         d="m 72.24034,154.10504 c 2.324998,4.20223 -12.107227,17.99723 -17.742339,21.12133 -5.173556,2.86923 -11.504445,1.32612 -14.146335,-3.44445 -2.641888,-4.76367 -0.595888,-10.95333 4.574223,-13.81911 5.638556,-3.12754 24.986005,-8.05655 27.314451,-3.85777"
         fill="#d62027"
         id="path16"
         style="stroke-width:5.93199" />
      <path
         d="m 95.634999,160.81692 c 4.195333,-2.32845 17.997231,12.10379 21.117891,17.74234 2.86922,5.17011 1.32611,11.50445 -3.44101,14.14634 -4.7671,2.64189 -10.95677,0.59588 -13.822548,-4.57769 -3.124111,-5.6351 -8.053111,-24.98598 -3.854333,-27.31099"
         fill="#d62027"
         id="path17"
         style="stroke-width:5.93199" />
      <path
         d="m 78.948397,130.71041 c -4.198778,2.325 -17.997226,-12.10723 -21.117893,-17.74234 -2.869222,-5.17011 -1.326112,-11.501 3.440999,-14.142887 4.767115,-2.645334 10.956782,-0.595889 13.822559,4.574227 3.124114,5.63511 8.053113,24.98254 3.854335,27.311"
         fill="#d62027"
         id="path18"
         inkscape:transform-center-x="-27.217636"
         inkscape:transform-center-y="-183.71905"
         style="stroke-width:5.93199" />
    </g>
    <g
       id="g20"
       data-name="Artifact"
       inkscape:label="note"
       transform="matrix(0.55766817,0,0,0.55766817,-489.80599,171.58969)"
       style="stroke-width:2.30035">
      <path
         transform="matrix(2.7777777,0,0,-2.7777777,983.31747,123.30814)"
         d="m 0,0 v 19.888 7.034 h -2.397 -21.932 -2.398 V 19.888 5.109 c -1.119,0.842 -2.548,1.348 -4.105,1.348 -3.591,0 -6.502,-2.685 -6.502,-5.996 0,-3.312 2.911,-5.997 6.502,-5.997 3.423,0 6.221,2.44 6.477,5.536 h 0.026 V 19.888 H -2.397 V 5.109 c -1.12,0.842 -2.548,1.348 -4.105,1.348 -3.592,0 -6.503,-2.685 -6.503,-5.996 0,-3.312 2.911,-5.997 6.503,-5.997 3.422,0 6.221,2.44 6.477,5.536 z"
         fill="#d62027"
         id="path20"
         style="stroke-width:2.30035" />
    </g>
    <g
       id="g696"
       inkscape:label="waves"
       transform="matrix(0.1928089,0,0,0.20225526,5.6971347,392.57824)"
       style="stroke-width:5.06391">
      <path
         stroke-width="17.4423"
         stroke-linecap="round"
         stroke-linejoin="round"
         fill="none"
         stroke="#064fa3"
         d="m -18.970622,238.61313 c 29.08489,0 29.08489,23.72535 58.173226,23.72535 29.084892,0 29.084892,-23.72535 58.173228,-23.72535 29.084888,0 29.084888,23.72535 58.173228,23.72535 29.09177,0 29.09177,-23.72535 58.18355,-23.72535 29.09179,0 29.09179,23.72535 58.18357,23.72535 m -290.886802,31.44433 c 29.08489,0 29.08489,23.72877 58.173226,23.72877 29.084892,0 29.084892,-23.72877 58.173228,-23.72877 29.084888,0 29.084888,23.72877 58.173228,23.72877 29.09177,0 29.09177,-23.72877 58.18355,-23.72877 29.09179,0 29.09179,23.72877 58.18357,23.72877 m -290.886802,31.44434 c 29.08489,0 29.08489,23.72534 58.173226,23.72534 29.084892,0 29.084892,-23.72534 58.173228,-23.72534 29.084888,0 29.084888,23.72534 58.173228,23.72534 29.09177,0 29.09177,-23.72534 58.18355,-23.72534 29.09179,0 29.09179,23.72534 58.18357,23.72534 M -18.970622,404.1256 c 29.08489,0 29.08489,23.72877 58.173226,23.72877 29.084892,0 29.084892,-23.72877 58.173228,-23.72877 29.084888,0 29.084888,23.72877 58.173228,23.72877 29.09177,0 29.09177,-23.72877 58.18355,-23.72877 29.09179,0 29.09179,23.72877 58.18357,23.72877 m -290.886802,31.4443 c 29.08489,0 29.08489,23.72533 58.173226,23.72533 29.084892,0 29.084892,-23.72533 58.173228,-23.72533 29.084888,0 29.084888,23.72533 58.173228,23.72533 29.09177,0 29.09177,-23.72533 58.18355,-23.72533 29.09179,0 29.09179,23.72533 58.18357,23.72533"
         id="path19"
         sodipodi:nodetypes="cssssccssssccssssccssssccssssc" />
    </g>
    <path
       d="m 4.3953734,116.35916 c 0.2063087,15.54285 10.0095456,28.23675 22.6014556,30.03096 v 28.98085 h -8.62796 v 4.97465 h 23.447556 v -4.97465 h -8.627959 v -29.00172 c 12.571042,-1.79421 22.374278,-14.48811 22.580585,-30.01009"
       fill="#064fa3"
       id="path2"
       style="stroke-width:3.56341" />
    <path
       d="m 30.082213,422.32542 c 0,0 -29.17400289,-28.73691 -29.17400289,-42.87754 0,-8.06372 6.52461359,-14.59628 14.58832189,-14.59628 6.842506,0 13.022743,4.7259 14.585681,11.09422 1.570885,-6.36832 7.735229,-11.09422 14.588328,-11.09422 8.055761,0 14.585673,6.53256 14.585673,14.59628 0,14.14063 -29.174001,42.87754 -29.174001,42.87754"
       fill="#d62027"
       id="path687"
       style="stroke-width:3.56341" />
    <g
       id="g2">
      <path
         d="m 35.097674,279.75696 c -0.04146,0.0449 -0.07083,0.095 -0.110572,0.13995 0,-0.0587 0.01382,-0.11057 0.01382,-0.16932 0,-6.93143 -4.918695,-12.54984 -4.918695,-12.54984 0,0 -4.916968,5.61841 -4.916968,12.54984 0,0.0587 0.01382,0.11058 0.01382,0.16932 -0.04146,-0.0449 -0.0691,-0.095 -0.110572,-0.13995 -4.737288,-5.01889 -12.138657,-5.66678 -12.138657,-5.66678 0,0 0.279887,7.49121 5.015449,12.51184 2.297811,2.43429 5.212399,3.82854 7.612143,4.63018 -6.80532,1.66375 -11.870867,7.73135 -11.870867,15.01697 0,0.38354 0.02938,0.87593 0.05701,1.35795 h 7.591405 c 1.776053,0 3.213481,1.43224 3.213481,3.19793 H 14.037289 c 0.350716,2.88522 0.965772,6.50988 1.784687,10.35915 h 4.18962 c 1.774322,0 3.213476,1.43224 3.213476,3.19966 h -6.686108 c 2.81957,11.92442 7.463565,24.7507 12.727798,24.7507 2.954325,0 5.713426,-4.04622 8.064792,-9.70091 H 26.830733 v -3.19793 h 11.725745 c 1.848614,-5.1744 3.386247,-11.16943 4.474684,-16.5667 H 32.798131 c 0,-1.76568 1.437428,-3.19792 3.213477,-3.19792 h 7.629422 c 0.775726,-4.37103 1.205918,-8.07862 1.205918,-10.20193 0,-0.0225 -0.0069,-0.0432 -0.0069,-0.0674 H 34.121506 c 0,-1.76568 1.439154,-3.19793 3.213481,-3.19793 h 7.15258 c -1.186912,-5.49919 -5.314332,-9.8754 -10.652852,-11.51324 2.525859,-0.74635 5.82745,-2.15786 8.386143,-4.86859 4.735561,-5.02063 5.013717,-12.51184 5.013717,-12.51184 0,0 -7.399638,0.64789 -12.13693,5.66678"
         fill="#064fa3"
         id="path71"
         style="stroke-width:3.56341"
         sodipodi:nodetypes="ccscscccccscscccsccsccccccscsccsccccc" />
    </g>
    <g
       id="g692"
       transform="matrix(0.71951168,0,0,0.71951192,-20.568926,541.17341)"
       style="stroke:#064fa3;stroke-width:1.68464;stroke-opacity:1">
      <path
         transform="matrix(2.7777776,0,0,-2.7777777,74.68305,102.60382)"
         stroke-width="2.02158"
         stroke-linecap="round"
         stroke-linejoin="round"
         fill="none"
         stroke="#d62027"
         d="M 0,0 C -0.677,0.431 -0.866,5.198 -0.282,7.234 0.099,8.564 1.386,9.365 2.587,9.021 3.787,8.676 4.454,7.315 4.073,5.986 3.489,3.948 0.802,0.006 0,0 Z"
         id="path11-3"
         style="stroke:#064fa3;stroke-width:1.68464;stroke-opacity:1" />
      <path
         transform="matrix(2.7777776,0,0,-2.7777777,83.998609,110.01145)"
         stroke-width="2.02158"
         stroke-linecap="round"
         stroke-linejoin="round"
         fill="none"
         stroke="#d62027"
         d="M 0,0 C -0.174,0.785 3.062,4.288 4.915,5.314 5.509,5.643 6.182,5.741 6.811,5.588 7.422,5.439 7.918,5.07 8.207,4.548 8.496,4.027 8.546,3.412 8.348,2.815 8.145,2.2 7.705,1.681 7.112,1.352 5.259,0.324 0.572,-0.563 0,0 Z"
         id="path15-9"
         style="stroke:#064fa3;stroke-width:1.68464;stroke-opacity:1" />
      <path
         transform="matrix(2.7777776,0,0,-2.7777777,66.11,132.5002)"
         stroke-width="2.02158"
         stroke-linecap="round"
         stroke-linejoin="round"
         fill="none"
         stroke="#d62027"
         d="m 0,0 c 0.677,-0.431 0.866,-5.197 0.283,-7.233 -0.382,-1.33 -1.669,-2.131 -2.869,-1.787 -1.201,0.344 -1.868,1.706 -1.487,3.036 C -3.489,-3.948 -0.802,-0.006 0,0 Z"
         id="path12-5"
         style="stroke:#064fa3;stroke-width:1.68464;stroke-opacity:1" />
      <path
         transform="matrix(2.7777776,0,0,-2.7777777,85.345549,121.83837)"
         stroke-width="2.02158"
         stroke-linecap="round"
         stroke-linejoin="round"
         fill="none"
         stroke="#d62027"
         d="M 0,0 C 0.432,0.677 5.198,0.866 7.234,0.282 8.563,-0.099 9.364,-1.386 9.02,-2.586 8.676,-3.787 7.314,-4.454 5.985,-4.073 3.948,-3.489 0.007,-0.803 0,0 Z"
         id="path13-6"
         style="stroke:#064fa3;stroke-width:1.68464;stroke-opacity:1" />
      <path
         transform="matrix(2.7777776,0,0,-2.7777777,55.4475,113.26497)"
         stroke-width="2.02158"
         stroke-linecap="round"
         stroke-linejoin="round"
         fill="none"
         stroke="#d62027"
         d="m 0,0 c -0.431,-0.677 -5.197,-0.866 -7.233,-0.283 -1.33,0.382 -2.131,1.669 -1.787,2.869 0.345,1.201 1.706,1.868 3.036,1.487 C -3.947,3.489 -0.006,0.802 0,0 Z"
         id="path14-2"
         style="stroke:#064fa3;stroke-width:1.68464;stroke-opacity:1" />
      <path
         transform="matrix(2.7777776,0,0,-2.7777777,77.935558,131.1542)"
         stroke-width="2.02158"
         stroke-linecap="round"
         stroke-linejoin="round"
         fill="none"
         stroke="#d62027"
         d="M 0,0 C 0.784,0.174 4.288,-3.062 5.314,-4.915 5.644,-5.509 5.741,-6.182 5.588,-6.811 5.439,-7.422 5.07,-7.917 4.549,-8.206 4.028,-8.495 3.412,-8.546 2.815,-8.348 2.201,-8.145 1.681,-7.705 1.352,-7.111 0.325,-5.258 -0.563,-0.572 0,0 Z"
         id="path17-2"
         style="stroke:#064fa3;stroke-width:1.68464;stroke-opacity:1" />
      <path
         transform="matrix(2.7777776,0,0,-2.7777777,62.857774,103.9483)"
         stroke-width="2.02158"
         stroke-linecap="round"
         stroke-linejoin="round"
         fill="none"
         stroke="#d62027"
         d="m 0,0 c -0.784,-0.173 -4.288,3.062 -5.315,4.915 -0.329,0.594 -0.426,1.267 -0.273,1.896 0.149,0.61 0.517,1.106 1.038,1.394 0.522,0.29 1.138,0.34 1.735,0.143 C -2.201,8.144 -1.682,7.705 -1.352,7.111 -0.324,5.258 0.564,0.572 0,0 Z"
         id="path18-7"
         style="stroke:#064fa3;stroke-width:1.68464;stroke-opacity:1" />
      <path
         transform="matrix(2.7777776,0,0,-2.7777777,56.795278,125.08883)"
         stroke-width="2.02158"
         stroke-linecap="round"
         stroke-linejoin="round"
         fill="none"
         stroke="#d62027"
         d="m 0,0 c 0.174,-0.784 -3.062,-4.288 -4.915,-5.315 -0.594,-0.33 -1.268,-0.427 -1.896,-0.274 -0.611,0.149 -1.107,0.518 -1.396,1.04 -0.289,0.52 -0.339,1.136 -0.141,1.733 0.203,0.614 0.642,1.134 1.236,1.463 C -5.259,-0.325 -0.573,0.563 0,0 Z"
         id="path16-1"
         style="stroke:#064fa3;stroke-width:1.68464;stroke-opacity:1" />
      <path
         transform="matrix(2.7777776,0,0,-2.7777777,64.93527,115.47496)"
         stroke-width="2.02158"
         stroke-linecap="round"
         stroke-linejoin="round"
         fill="none"
         stroke="#d62027"
         d="M 0,0 C -0.319,-1.111 0.326,-2.275 1.438,-2.594 2.549,-2.912 3.712,-2.267 4.031,-1.156 4.35,-0.044 3.705,1.12 2.594,1.438 1.482,1.757 0.319,1.112 0,0 Z"
         id="path10-5"
         style="stroke:#064fa3;stroke-width:1.68464;stroke-opacity:1" />
    </g>
    <g
       id="g19"
       data-name="Artifact"
       transform="matrix(0.93919219,0,0,0.93897769,-857.46793,349.58635)"
       style="stroke-width:1.29075">
      <path
         transform="matrix(2.7777777,0,0,-2.7777777,945.0144,408.11335)"
         stroke-width="1.5489"
         stroke-linecap="round"
         stroke-linejoin="round"
         fill="none"
         stroke="#d62027"
         d="m 0,0 c 0,0 -11.013,10.848 -11.013,16.186 0,3.044 2.463,5.51 5.507,5.51 2.583,0 4.916,-1.784 5.506,-4.188 0.593,2.404 2.92,4.188 5.507,4.188 3.041,0 5.506,-2.466 5.506,-5.51 C 11.013,10.848 0,0 0,0 Z"
         id="path19-0" />
    </g>
    <g
       clip-path="url(#cp2)"
       id="g73"
       transform="matrix(0.6103692,0,0,0.63223419,-528.00645,232.51826)"
       style="fill:none;fill-opacity:1;stroke:#d62027;stroke-width:1.95124;stroke-opacity:1">
      <path
         stroke-width="6.50413"
         stroke-linecap="round"
         stroke-linejoin="round"
         fill="none"
         stroke="#064fa3"
         d="m 936.3772,490.29057 h -15.53611 c -0.92222,0 -1.66667,-0.74722 -1.66667,-1.66667 0,-3.75555 3.06389,-6.80833 6.83334,-6.80833 h 9.33611 c -3.00556,-9.58889 -12.075,-16.35 -22.31111,-16.35 -12.89167,0 -23.38334,10.43611 -23.38334,23.26667 0,0.16111 0.003,0.33333 0.0111,0.51666 h 10.62223 c 3.76666,0 6.83333,3.05556 6.83333,6.80834 0,0.92222 -0.74722,1.66666 -1.66667,1.66666 h -15.00555 c 0.54166,3.975 1.35,8.59723 2.325,13.32222 h 5.38611 c 3.76667,0 6.83333,3.05556 6.83333,6.80834 0,0.92222 -0.74722,1.66666 -1.66666,1.66666 h -8.63334 c 5.46945,22.225 12.60556,36.46111 18.34445,36.46111 3.16666,0 6.83611,-4.33055 10.42777,-12.26111 h -14.34166 c -0.91945,0 -1.66667,-0.74722 -1.66667,-1.66666 v -5.14167 c 0,-0.92222 0.74722,-1.66667 1.66667,-1.66667 h 17.67222 c 2.34167,-6.75277 4.55833,-14.91666 6.32778,-23.30277 h -14.40834 c -0.91944,0 -1.66666,-0.74723 -1.66666,-1.66667 0,-3.75278 3.06666,-6.80833 6.83333,-6.80833 h 10.86667 c 0.90833,-5.325 1.48055,-9.96667 1.63333,-13.17778 z"
         id="path24"
         style="fill:none;fill-opacity:1;stroke:#d62027;stroke-opacity:1" />
      <path
         transform="matrix(2.7777777,0,0,-2.7777777,923.6516,447.2489)"
         stroke-width="2.34149"
         stroke-linecap="round"
         stroke-linejoin="round"
         fill="none"
         stroke="#064fa3"
         d="m 0,0 c -0.158,-0.199 -0.444,-0.304 -0.685,-0.221 -0.245,0.083 -0.429,0.288 -0.427,0.547 0.006,2.843 -1.471,5.291 -2.239,6.371 -0.768,-1.076 -2.245,-3.506 -2.245,-6.28 0.002,-0.248 -0.145,-0.518 -0.375,-0.61 -0.231,-0.091 -0.49,-0.077 -0.659,0.106 -1.946,2.072 -4.685,2.813 -5.975,3.059 0.178,-1.311 0.766,-4.109 2.666,-6.122 2.548,-2.7 6.597,-3.09 6.637,-3.093 -0.055,0.003 3.993,0.393 6.541,3.093 1.9,2.013 2.489,4.811 2.666,6.121 C 4.618,2.728 1.895,2 0,0 Z"
         id="path73"
         style="fill:none;fill-opacity:1;stroke:#d62027;stroke-opacity:1" />
    </g>
  </g>
</svg>
